<?xml version="1.0" encoding="UTF-8"?><svg id="Layer_1" xmlns="http://www.w3.org/2000/svg" xmlns:xlink="http://www.w3.org/1999/xlink" viewBox="0 0 1000 1000"><defs><radialGradient id="radial-gradient" cx="-384.3" cy="2007.43" fx="-1.98" fy="2007.43" r="445.33" gradientTransform="translate(-1714.1 -3644.3) rotate(-33.11) scale(1 2.33)" gradientUnits="userSpaceOnUse"><stop offset=".04" stop-color="#d51e69"/><stop offset=".14" stop-color="#b41e7c"/><stop offset=".27" stop-color="#921d90"/><stop offset=".34" stop-color="#851d97"/><stop offset=".41" stop-color="#7c209d"/><stop offset=".53" stop-color="#6426ae"/><stop offset=".65" stop-color="#4230c5"/><stop offset=".71" stop-color="#3c39cc"/><stop offset=".81" stop-color="#2a50e0"/><stop offset=".88" stop-color="#1b64f2"/></radialGradient><radialGradient id="radial-gradient-2" cx="-379.84" cy="2004.29" fx="90.12" fy="2004.29" r="547.42" gradientTransform="translate(-1709.68 -3639.1) rotate(-33.11) scale(1 2.33)" gradientUnits="userSpaceOnUse"><stop offset=".04" stop-color="#d51e69"/><stop offset=".14" stop-color="#b41e7c"/><stop offset=".27" stop-color="#921d90"/><stop offset=".34" stop-color="#851d97"/><stop offset=".41" stop-color="#7c209d"/><stop offset=".53" stop-color="#6426ae"/><stop offset=".65" stop-color="#4230c5"/><stop offset=".71" stop-color="#3c39cc"/><stop offset=".81" stop-color="#2a50e0"/><stop offset=".88" stop-color="#1b64f2"/></radialGradient></defs><g><g><g><polygon points="853.5 296.7 853.5 703.3 501.4 906.6 149.3 703.3 149.3 296.7 501.4 93.4 853.5 296.7" fill="url(#radial-gradient)"/><path d="M501.6,0L68.7,249.9v499.1l432.2,251,432.7-250.9,.5-499.2L501.6,0Zm392.7,726.9l-392.9,226.8L108.5,726.8V273.2L501.4,46.3l392.9,226.9v453.7h0Z" fill="url(#radial-gradient-2)"/></g><g opacity=".2"><polygon points="853.5 296.04 853.5 702.64 501.4 905.94 149.3 702.64 149.3 296.04 501.4 92.74 853.5 296.04" fill="#fff"/></g></g><path d="M501.4,46.3L108.5,273.2v453.7l392.9,226.8,392.9-226.8V273.2L501.4,46.3Zm352.1,657l-352.1,203.3-352.1-203.3V296.7L501.4,93.4l352.1,203.3v406.6Z" fill="#fff"/><path d="M501.4,46.3L108.5,273.2v453.7l392.9,226.8,392.9-226.8V273.2L501.4,46.3Zm132.77,619.68l62.17,62.17c-3.55,13.29-.11,28.06,10.32,38.49l13.59,13.59-218.85,126.37-352.1-203.3V296.7L501.4,93.4l352.1,203.3v406.6l-61.81,35.69-28.69-28.69c-10.43-10.43-25.2-13.86-38.49-10.32l-62.18-62.17" fill="#fff"/></g><path d="M522.57,564.56c-5.86,5.85-13.56,8.77-21.25,8.77s-15.38-2.92-21.24-8.76l-75.7-75.52c-10.81-10.79-10.81-28.28,0-39.07,10.81-10.79,28.33-10.79,39.14,0l57.8,57.65,222.5-221.96c10.81-10.79,28.33-10.79,39.14,0,10.81,10.79,10.81,28.28,0,39.07" fill="#fff"/><path d="M600.74,433.5c2.98,1.4,6.88,2.02,10.05,.84s2.53-5.35-.76-5.62-6.95,1.37-9.45,3.53c-.37,.32-.29,1.04,.16,1.25h0Z" fill="#fff"/><path d="M652.82,454.48v127.79c0,41.93-33.99,75.91-75.91,75.91h-161.7c-41.93,0-75.91-33.99-75.91-75.91v-161.7c0-41.93,33.99-75.91,75.91-75.91h161.7c18.96,0,36.27,6.97,49.57,18.46l31.89-31.89c-22.32-20.4-51.03-31.58-81.46-31.58h-161.7c-32.3,0-62.66,12.58-85.5,35.41-22.84,22.84-35.42,53.2-35.42,85.5v161.7c0,32.3,12.58,62.66,35.42,85.5,22.84,22.84,53.2,35.41,85.5,35.41h161.7c32.3,0,62.66-12.58,85.5-35.41,22.84-22.84,35.42-53.2,35.42-85.5v-161.7c0-3.56-.17-7.1-.48-10.61l-44.52,44.52Z" fill="#fff"/></svg>