<?xml version="1.0" encoding="UTF-8"?><svg id="Layer_1" xmlns="http://www.w3.org/2000/svg" xmlns:xlink="http://www.w3.org/1999/xlink" viewBox="0 0 1000 1000"><defs><radialGradient id="radial-gradient" cx="289.58" cy="1035.31" fx="671.9" fy="1035.31" r="445.33" gradientTransform="translate(-1040.41 -1377.08) rotate(-33.11) scale(1 2.33)" gradientUnits="userSpaceOnUse"><stop offset=".04" stop-color="#d51e69"/><stop offset=".14" stop-color="#b41e7c"/><stop offset=".27" stop-color="#921d90"/><stop offset=".34" stop-color="#851d97"/><stop offset=".41" stop-color="#7c209d"/><stop offset=".53" stop-color="#6426ae"/><stop offset=".65" stop-color="#4230c5"/><stop offset=".71" stop-color="#3c39cc"/><stop offset=".81" stop-color="#2a50e0"/><stop offset=".88" stop-color="#1b64f2"/></radialGradient><radialGradient id="radial-gradient-2" cx="294.03" cy="1032.17" fx="763.99" fy="1032.17" r="547.42" gradientTransform="translate(-1035.99 -1371.88) rotate(-33.11) scale(1 2.33)" gradientUnits="userSpaceOnUse"><stop offset=".04" stop-color="#d51e69"/><stop offset=".14" stop-color="#b41e7c"/><stop offset=".27" stop-color="#921d90"/><stop offset=".34" stop-color="#851d97"/><stop offset=".41" stop-color="#7c209d"/><stop offset=".53" stop-color="#6426ae"/><stop offset=".65" stop-color="#4230c5"/><stop offset=".71" stop-color="#3c39cc"/><stop offset=".81" stop-color="#2a50e0"/><stop offset=".88" stop-color="#1b64f2"/></radialGradient></defs><g><g><g><polygon points="853.5 296.7 853.5 703.3 501.4 906.6 149.3 703.3 149.3 296.7 501.4 93.4 853.5 296.7" fill="url(#radial-gradient)"/><path d="M501.6,0L68.7,249.9v499.1l432.2,251,432.7-250.9,.5-499.2L501.6,0Zm392.7,726.9l-392.9,226.8L108.5,726.8V273.2L501.4,46.3l392.9,226.9v453.7h0Z" fill="url(#radial-gradient-2)"/></g><g opacity=".2"><polygon points="853.5 296.04 853.5 702.64 501.4 905.94 149.3 702.64 149.3 296.04 501.4 92.74 853.5 296.04" fill="#fff"/></g></g><path d="M501.4,46.3L108.5,273.2v453.7l392.9,226.8,392.9-226.8V273.2L501.4,46.3Zm352.1,657l-352.1,203.3-352.1-203.3V296.7L501.4,93.4l352.1,203.3v406.6Z" fill="#fff"/></g><g><path d="M501.4,46.3L108.5,273.2v453.7l392.9,226.8,392.9-226.8V273.2L501.4,46.3Zm132.77,619.68l62.17,62.17c-3.55,13.29-.11,28.06,10.32,38.49l13.59,13.59-218.85,126.37-352.1-203.3V296.7L501.4,93.4l352.1,203.3v406.6l-61.81,35.69-28.69-28.69c-10.43-10.43-25.2-13.86-38.49-10.32l-62.18-62.17" fill="#fff"/><path d="M501.9,297.3c-115.02,0-208.26,93.24-208.26,208.26s93.24,208.26,208.26,208.26,208.26-93.24,208.26-208.26-93.24-208.26-208.26-208.26Zm0,376.85c-93.11,0-168.59-75.48-168.59-168.59s75.48-168.59,168.59-168.59,168.59,75.48,168.59,168.59-75.48,168.59-168.59,168.59Z" fill="#fff"/></g><g><path d="M501.91,550.51c-3.71,0-7.43-1.41-10.25-4.23l-48-47.92c-5.22-5.21-5.22-13.66,0-18.86,5.22-5.21,13.68-5.21,18.9,0l39.36,39.29,107.42-107.17c5.22-5.21,13.68-5.21,18.9,0,5.22,5.21,5.22,13.66,0,18.86l-116.06,115.79c-2.83,2.82-6.55,4.23-10.26,4.23Z" fill="#fff"/><path d="M586.17,487.16v91.16c0,6.74-5.47,12.2-12.22,12.2h-143.65c-6.75,0-12.22-5.46-12.22-12.2v-143.39c0-6.74,5.47-12.2,12.22-12.2h143.65c2.46,0,4.73,.74,6.64,1.99l19.01-18.98c-6.86-6.02-15.82-9.69-25.65-9.69h-143.65c-21.47,0-38.94,17.44-38.94,38.87v143.39c0,21.44,17.47,38.87,38.94,38.87h143.65c21.47,0,38.94-17.44,38.94-38.87v-117.83l-26.73,26.68Z" fill="#fff"/></g></svg>